{"title":"Death Race (Unrated) 2008 BRRip x264 AAC-MS","uid":5598441,"size":1662153433,"categoryP":"video","categoryS":"hd___movies","magnet":"?xt=urn:btih:c0983a0f727f68fd001abd360d9624dfd78bd4f6&amp;dn=Death+Race+%28Unrated%29+2008+BRRip+x264+AAC-MS&amp;tr=udp%3A%2F%2Ftracker.openbittorrent.com%3A80&amp;tr=udp%3A%2F%2Fopen.demonii.com%3A1337&amp;tr=udp%3A%2F%2Ftracker.coppersurfer.tk%3A6969&amp;tr=udp%3A%2F%2Fexodus.desync.com%3A6969","seeders":0,"leechers":0,"uploader":"rev-x","files":2,"time":1275153380,"description":"Death Race (unrated) 2008 BRRip.H264.5.1Ch-MS   \n      Format : MPEG-4\n      Format profile : Base Media / Version 2\n      Codec ID : mp42\n      File size : 1.54 GiB\n      Duration : 1h 50mn\n      Overall bit rate : 1 997 Kbps\n   Video #1\n      Format : AVC\n      Format/Info : Advanced Video Codec\n      Format profile : &lt;a class=&quot;__cf_email__&quot; href=&quot;/cdn-cgi/l/email-protection&quot; data-cfemail=&quot;eca4858b84aca0dfc2dd&quot;&gt;[email&amp;#160;protected]&lt;/a&gt;&lt;script cf-hash='f9e31' type=&quot;text/javascript&quot;&gt;\n/* &lt;![CDATA[ */!function(){try{var t=&quot;currentScript&quot;in document?document.currentScript:function(){for(var t=document.getElementsByTagName(&quot;script&quot;),e=t.length;e--;)if(t[e].getAttribute(&quot;cf-hash&quot;))return t[e]}();if(t&amp;&amp;t.previousSibling){var e,r,n,i,c=t.previousSibling,a=c.getAttribute(&quot;data-cfemail&quot;);if(a){for(e=&quot;&quot;,r=parseInt(a.substr(0,2),16),n=2;a.length-n;n+=2)i=parseInt(a.substr(n,2),16)^r,e+=String.fromCharCode(i);e=document.createTextNode(e),c.parentNode.replaceChild(e,c)}}}catch(u){}}();/* ]]&gt; */&lt;/script&gt;\n      Format settings, CABAC : Yes\n      Format settings, ReFrames : 3 frames\n      Codec ID : avc1\n      Codec ID/Info : Advanced Video Coding\n      Duration : 1h 50mn\n      Bit rate mode : Variable\n      Bit rate : 1 800 Kbps\n      Width : 1 280 pixels\n      Height : 544 pixels\n      Display aspect ratio : 2.35\n      Frame rate mode : Variable\n      Frame rate : 23.976 fps\n      Resolution : 24 bits\n      Colorimetry : 4:2:0\n      Scan type : Progressive\n      Bits/(Pixel*Frame) : 0.108\n      Stream size : 1.39 GiB (90%)\n      Writing library : x264 core 65\n\n   Audio #2\n      Format : AAC\n      Format/Info : Advanced Audio Codec\n      Format version : Version 4\n      Format profile : LC\n      Format settings, SBR : No\n      Codec ID : 40\n      Duration : 1h 50mn\n      Bit rate mode : Variable\n      Bit rate : 192 Kbps\n      Maximum bit rate : 266 Kbps\n      Channel(s) : 6 channels\n      Channel positions : Front: L C R, Rear: L R, LFE\n      Sampling rate : 48.0 KHz\n      Resolution : 16 bits\n      Stream size : 152 MiB (10%)\n\nBe Patience I only Seed from 8pm to 5am full speed up to 300Kbps....Thanx and Enjoy!!! \n\nNote: Just leave a Comment..................","torrent":{"xt":"urn:btih:c0983a0f727f68fd001abd360d9624dfd78bd4f6","amp;dn":"Death+Race+%28Unrated%29+2008+BRRip+x264+AAC-MS","amp;tr":["udp%3A%2F%2Ftracker.openbittorrent.com%3A80","udp%3A%2F%2Fopen.demonii.com%3A1337","udp%3A%2F%2Ftracker.coppersurfer.tk%3A6969","udp%3A%2F%2Fexodus.desync.com%3A6969"],"infoHash":"c0983a0f727f68fd001abd360d9624dfd78bd4f6","infoHashBuffer":{"type":"Buffer","data":[192,152,58,15,114,127,104,253,0,26,189,54,13,150,36,223,215,139,212,246]},"announce":[],"urlList":[]}}